<?xml version="1.0" encoding="utf-8"?>
<!-- Generator: Adobe Illustrator 17.0.0, SVG Export Plug-In . SVG Version: 6.00 Build 0)  -->
<!DOCTYPE svg PUBLIC "-//W3C//DTD SVG 1.1//EN" "http://www.w3.org/Graphics/SVG/1.1/DTD/svg11.dtd">
<svg version="1.1" id="Layer_1" xmlns="http://www.w3.org/2000/svg" xmlns:xlink="http://www.w3.org/1999/xlink" x="0px" y="0px"
	 width="469.477px" height="76.432px" viewBox="0 0 469.477 76.432" enable-background="new 0 0 469.477 76.432"
	 xml:space="preserve">
<path fill="#DFDFDF" d="M458.769,76.432v-4.031h1.512v-3.712h-1.512V47.575h1.512v-3.712h-1.512v-9.371h0.665v-1.758h-0.011
	c4.305-5.178-1.29-8.247-4.051-11.829c0.066-0.134,0.103-0.284,0.103-0.443v-0.777c0-0.365-0.196-0.686-0.49-0.863
	c0.15-0.102,0.244-0.243,0.244-0.4c0-0.188-0.135-0.354-0.342-0.456l-0.084-1.262c0.118-0.068,0.194-0.17,0.194-0.284
	c0-0.126-0.092-0.238-0.233-0.304l-0.05-0.74l-0.253-3.81l-0.253,3.81l-0.049,0.74c-0.141,0.067-0.233,0.178-0.233,0.304
	c0,0.114,0.075,0.217,0.194,0.284l-0.082,1.222c-0.259,0.093-0.436,0.281-0.436,0.496c0,0.172,0.113,0.326,0.29,0.429
	c-0.268,0.182-0.444,0.488-0.444,0.834v0.777c0,0.159,0.037,0.309,0.103,0.443c-2.697,3.498-8.131,6.921-4.052,11.829h-0.01v1.758
	h0.665v9.371h-1.106v3.712h1.106v21.114h-1.106v3.712h1.106v4.031H426.67v-2.771h1.211V70.69h-1.211v-16.9h1.211v-2.971h-1.211
	v-7.501h0.532v-1.407h-0.008c3.446-4.145-1.033-6.601-3.243-9.468c0.053-0.107,0.082-0.227,0.082-0.354v-0.622
	c0-0.292-0.157-0.549-0.392-0.691c0.121-0.082,0.195-0.194,0.195-0.32c0-0.151-0.108-0.284-0.273-0.365l-0.067-1.01
	c0.095-0.054,0.155-0.136,0.155-0.228c0-0.101-0.074-0.19-0.187-0.244l-0.039-0.593l-0.203-3.05l-0.202,3.05l-0.04,0.593
	c-0.112,0.053-0.186,0.142-0.186,0.244c0,0.091,0.061,0.174,0.156,0.228l-0.065,0.978c-0.207,0.075-0.349,0.225-0.349,0.397
	c0,0.138,0.09,0.261,0.232,0.343c-0.214,0.146-0.356,0.391-0.356,0.668v0.622c0,0.127,0.03,0.247,0.083,0.354
	c-2.158,2.8-6.509,5.54-3.243,9.468h-0.009v1.407h0.532v7.501h-0.885v2.971h0.885v16.9h-0.885v2.971h0.885v2.771h-33.056v-3.869
	h-2.959c2.221-3.502-2.614-5.737-4.864-8.371v-0.341c0-0.21-0.107-0.396-0.27-0.507c0.108-0.063,0.177-0.156,0.177-0.261
	c0-0.131-0.108-0.245-0.265-0.302l-0.049-0.743c0.072-0.041,0.118-0.103,0.118-0.173c0-0.077-0.056-0.145-0.142-0.185l-0.03-0.45
	l-0.154-2.316l-0.154,2.316l-0.03,0.45c-0.085,0.04-0.141,0.108-0.141,0.185c0,0.069,0.046,0.132,0.118,0.173l-0.051,0.767
	c-0.125,0.062-0.207,0.163-0.207,0.278c0,0.095,0.057,0.181,0.148,0.243c-0.178,0.108-0.297,0.303-0.297,0.525v0.3
	c-2.234,2.652-7.131,4.892-4.899,8.412h-2.318c2.221-3.502-2.614-5.737-4.864-8.371v-0.341c0-0.21-0.107-0.396-0.27-0.507
	c0.108-0.063,0.176-0.156,0.176-0.261c0-0.131-0.108-0.245-0.265-0.302l-0.049-0.743c0.072-0.041,0.118-0.103,0.118-0.173
	c0-0.077-0.056-0.145-0.142-0.185l-0.03-0.45l-0.154-2.316l-0.154,2.316l-0.03,0.45c-0.086,0.04-0.142,0.108-0.142,0.185
	c0,0.069,0.046,0.132,0.118,0.173l-0.051,0.767c-0.126,0.062-0.208,0.163-0.208,0.278c0,0.095,0.056,0.181,0.148,0.243
	c-0.178,0.108-0.298,0.303-0.298,0.525v0.3c-2.234,2.651-7.131,4.891-4.899,8.412h-2.318c2.221-3.502-2.614-5.737-4.864-8.371
	v-0.341c0-0.21-0.107-0.396-0.27-0.507c0.108-0.063,0.176-0.156,0.176-0.261c0-0.131-0.107-0.245-0.265-0.302l-0.049-0.743
	c0.072-0.041,0.118-0.103,0.118-0.173c0-0.077-0.056-0.144-0.141-0.185l-0.03-0.45l-0.154-2.316l-0.154,2.316l-0.03,0.45
	c-0.085,0.041-0.141,0.108-0.141,0.185c0,0.069,0.046,0.132,0.118,0.173l-0.051,0.767c-0.125,0.062-0.208,0.163-0.208,0.278
	c0,0.095,0.057,0.181,0.148,0.243c-0.178,0.108-0.297,0.303-0.297,0.524v0.3c-2.235,2.651-7.131,4.891-4.899,8.412h-2.346V61.92
	h0.806v-2.705h-0.806V43.829h0.806v-2.705h-0.806v-6.829h0.484v-1.281h-0.007c2.973-3.576-0.987-6.07-2.953-8.62
	c0.048-0.097,0.076-0.207,0.076-0.323v-0.566c0-0.252-0.129-0.475-0.324-0.608c0.129-0.075,0.212-0.187,0.212-0.313
	c0-0.157-0.129-0.294-0.318-0.362l-0.059-0.891c0.086-0.049,0.141-0.124,0.141-0.207c0-0.092-0.067-0.173-0.169-0.222l-0.036-0.539
	l-0.184-2.776l-0.184,2.776l-0.036,0.539c-0.103,0.049-0.17,0.13-0.17,0.222c0,0.083,0.055,0.157,0.141,0.207l-0.061,0.92
	c-0.151,0.074-0.249,0.195-0.249,0.333c0,0.115,0.068,0.217,0.178,0.292c-0.214,0.129-0.357,0.363-0.357,0.629v0.566
	c0,0.116,0.027,0.225,0.075,0.323c-2.012,2.61-6.09,4.846-2.952,8.62h-0.008v1.281h0.484v6.829h-1.102v2.705h1.102v15.386h-1.102
	v2.705h1.102v1.737h-2.263c2.335-7.128-7.655-12.031-12.519-17.726v-0.806c0-0.497-0.254-0.938-0.639-1.199
	c0.255-0.147,0.417-0.369,0.417-0.617c0-0.31-0.254-0.579-0.627-0.714l-0.117-1.757c0.17-0.097,0.278-0.244,0.278-0.408
	c0-0.182-0.132-0.342-0.334-0.438l-0.071-1.064l-0.364-5.476l-0.364,5.476l-0.071,1.064c-0.202,0.096-0.335,0.256-0.335,0.438
	c0,0.164,0.109,0.311,0.279,0.408l-0.121,1.814c-0.297,0.146-0.491,0.386-0.491,0.656c0,0.225,0.134,0.429,0.35,0.575
	c-0.421,0.255-0.704,0.717-0.704,1.241v0.709c-4.833,5.736-14.948,10.654-12.6,17.823h-4.717V53.67h0.806v-2.705h-0.806V35.58h0.806
	v-2.705h-0.806v-6.829h0.484v-1.281h-0.007c2.973-3.576-0.987-6.071-2.953-8.62c0.048-0.098,0.075-0.207,0.075-0.323v-0.566
	c0-0.252-0.129-0.475-0.324-0.608c0.129-0.075,0.211-0.187,0.211-0.313c0-0.157-0.129-0.294-0.318-0.362l-0.059-0.89
	c0.086-0.049,0.141-0.124,0.141-0.207c0-0.092-0.067-0.173-0.17-0.222l-0.036-0.539l-0.184-2.776l-0.184,2.776l-0.036,0.539
	c-0.103,0.049-0.17,0.13-0.17,0.222c0,0.083,0.055,0.158,0.141,0.207l-0.061,0.919c-0.151,0.074-0.249,0.196-0.249,0.333
	c0,0.114,0.068,0.217,0.177,0.291c-0.213,0.129-0.357,0.363-0.357,0.629v0.566c0,0.116,0.027,0.225,0.076,0.323
	c-2.013,2.61-6.09,4.846-2.953,8.62h-0.007v1.281h0.484v6.829h-1.102v2.705h1.102v15.386h-1.102v2.705h1.102v9.986h-6.619h-0.518
	c8.561-9.439-4.286-15.046-10.015-21.753v-0.806c0-0.497-0.254-0.938-0.639-1.199c0.255-0.148,0.417-0.369,0.417-0.617
	c0-0.31-0.254-0.579-0.627-0.714l-0.117-1.757c0.17-0.097,0.278-0.244,0.278-0.408c0-0.182-0.132-0.342-0.335-0.438l-0.071-1.064
	l-0.364-5.476l-0.364,5.476l-0.071,1.064c-0.202,0.096-0.335,0.256-0.335,0.438c0,0.164,0.109,0.311,0.278,0.408l-0.12,1.814
	c-0.297,0.146-0.491,0.386-0.491,0.657c0,0.225,0.134,0.429,0.35,0.575c-0.421,0.255-0.704,0.717-0.704,1.241v0.709
	c-5.687,6.749-18.699,12.365-10.097,21.849h-0.517h-12.429v-2.372h-0.813c13.447-14.827-6.733-23.634-15.732-34.168v-1.266
	c0-0.781-0.399-1.473-1.004-1.884c0.4-0.232,0.655-0.58,0.655-0.968c0-0.487-0.399-0.91-0.984-1.121l-0.183-2.76
	c0.267-0.152,0.438-0.383,0.438-0.642c0-0.285-0.208-0.537-0.526-0.687l-0.111-1.671l-0.571-8.602l-0.571,8.602l-0.111,1.671
	c-0.318,0.15-0.525,0.402-0.525,0.687c0,0.258,0.17,0.489,0.437,0.642l-0.189,2.85c-0.467,0.229-0.771,0.606-0.771,1.031
	c0,0.354,0.21,0.673,0.55,0.903c-0.662,0.401-1.106,1.126-1.106,1.95v1.114c-8.933,10.601-29.372,19.422-15.861,34.32h-0.812v2.372
	h-12.43h-0.518c8.561-9.439-4.286-15.046-10.015-21.753v-0.806c0-0.497-0.254-0.938-0.639-1.199
	c0.255-0.148,0.417-0.369,0.417-0.617c0-0.31-0.254-0.579-0.626-0.714l-0.117-1.757c0.17-0.097,0.278-0.244,0.278-0.408
	c0-0.182-0.132-0.342-0.334-0.438l-0.071-1.064l-0.363-5.476l-0.364,5.476l-0.07,1.064c-0.202,0.096-0.335,0.256-0.335,0.438
	c0,0.164,0.109,0.311,0.278,0.408l-0.12,1.814c-0.297,0.146-0.491,0.386-0.491,0.657c0,0.225,0.134,0.429,0.35,0.575
	c-0.421,0.255-0.704,0.717-0.704,1.241v0.709c-5.687,6.749-18.699,12.365-10.098,21.849h-0.517h-4.772v-9.986h0.806v-2.705h-0.806
	V35.58h0.806v-2.705h-0.806v-6.829h0.484v-1.281h-0.007c2.973-3.576-0.987-6.071-2.953-8.62c0.048-0.098,0.076-0.207,0.076-0.323
	v-0.566c0-0.252-0.129-0.475-0.324-0.608c0.129-0.075,0.212-0.187,0.212-0.313c0-0.157-0.129-0.294-0.318-0.362l-0.059-0.89
	c0.086-0.049,0.141-0.124,0.141-0.207c0-0.092-0.068-0.173-0.17-0.222l-0.036-0.539l-0.184-2.776l-0.184,2.776l-0.036,0.539
	c-0.103,0.049-0.17,0.13-0.17,0.222c0,0.083,0.055,0.158,0.141,0.207l-0.061,0.919c-0.151,0.074-0.249,0.196-0.249,0.333
	c0,0.114,0.068,0.217,0.178,0.291c-0.214,0.129-0.357,0.363-0.357,0.629v0.566c0,0.116,0.027,0.225,0.076,0.323
	c-2.013,2.61-6.09,4.846-2.953,8.62h-0.007v1.281h0.484v6.829h-1.102v2.705h1.102v15.386h-1.102v2.705h1.102v9.986h-6.564
	c2.335-7.128-7.655-12.031-12.519-17.726v-0.806c0-0.497-0.254-0.938-0.639-1.199c0.255-0.147,0.417-0.369,0.417-0.617
	c0-0.31-0.254-0.579-0.627-0.714l-0.117-1.757c0.17-0.097,0.279-0.244,0.279-0.408c0-0.182-0.132-0.342-0.335-0.438l-0.071-1.064
	l-0.364-5.476l-0.363,5.476l-0.071,1.064c-0.202,0.096-0.335,0.256-0.335,0.438c0,0.164,0.109,0.311,0.278,0.408l-0.12,1.814
	c-0.297,0.146-0.491,0.386-0.491,0.656c0,0.225,0.134,0.429,0.35,0.575c-0.421,0.255-0.704,0.717-0.704,1.241v0.709
	c-4.833,5.736-14.948,10.654-12.6,17.823h-2.087V61.92h0.806v-2.705h-0.806V43.829h0.806v-2.705h-0.806v-6.829h0.484v-1.281h-0.007
	c2.973-3.576-0.988-6.07-2.953-8.62c0.048-0.097,0.075-0.207,0.075-0.323v-0.566c0-0.252-0.129-0.475-0.324-0.608
	c0.13-0.075,0.211-0.187,0.211-0.313c0-0.157-0.129-0.294-0.318-0.362l-0.059-0.891c0.087-0.049,0.142-0.124,0.142-0.207
	c0-0.092-0.068-0.173-0.17-0.222l-0.036-0.539l-0.184-2.776l-0.184,2.776l-0.036,0.539c-0.103,0.049-0.17,0.13-0.17,0.222
	c0,0.083,0.055,0.157,0.141,0.207l-0.061,0.92c-0.151,0.074-0.249,0.195-0.249,0.333c0,0.115,0.068,0.217,0.178,0.292
	c-0.214,0.129-0.357,0.363-0.357,0.629v0.566c0,0.116,0.027,0.225,0.076,0.323c-2.012,2.61-6.09,4.846-2.953,8.62h-0.007v1.281
	h0.484v6.829h-1.102v2.705h1.102v15.386h-1.102v2.705h1.102v10.643h-1.276c2.221-3.502-2.614-5.737-4.864-8.371v-0.341
	c0-0.21-0.107-0.396-0.27-0.507c0.108-0.063,0.177-0.156,0.177-0.261c0-0.131-0.107-0.245-0.265-0.302l-0.049-0.743
	c0.072-0.041,0.118-0.103,0.118-0.173c0-0.077-0.056-0.145-0.141-0.185l-0.03-0.45l-0.153-2.316l-0.154,2.316l-0.03,0.45
	c-0.085,0.04-0.141,0.108-0.141,0.185c0,0.069,0.046,0.132,0.118,0.173l-0.051,0.767c-0.125,0.062-0.207,0.163-0.207,0.278
	c0,0.095,0.057,0.181,0.148,0.243c-0.178,0.108-0.297,0.303-0.297,0.525v0.3c-2.235,2.652-7.131,4.892-4.899,8.412h-2.318
	c2.221-3.502-2.614-5.737-4.864-8.371v-0.341c0-0.21-0.108-0.396-0.27-0.507c0.108-0.063,0.176-0.156,0.176-0.261
	c0-0.131-0.107-0.245-0.265-0.302l-0.049-0.743c0.072-0.041,0.118-0.103,0.118-0.173c0-0.077-0.056-0.145-0.142-0.185l-0.03-0.45
	l-0.154-2.316l-0.154,2.316l-0.03,0.45c-0.086,0.04-0.142,0.108-0.142,0.185c0,0.069,0.046,0.132,0.118,0.173l-0.051,0.767
	c-0.126,0.062-0.208,0.163-0.208,0.278c0,0.095,0.057,0.181,0.148,0.243c-0.178,0.108-0.298,0.303-0.298,0.525v0.3
	c-2.234,2.651-7.131,4.891-4.899,8.412h-2.318c2.221-3.502-2.614-5.737-4.864-8.371v-0.341c0-0.21-0.107-0.396-0.27-0.507
	c0.108-0.063,0.176-0.156,0.176-0.261c0-0.131-0.107-0.245-0.265-0.302l-0.049-0.743c0.072-0.041,0.118-0.103,0.118-0.173
	c0-0.077-0.056-0.144-0.141-0.185l-0.03-0.45l-0.154-2.316l-0.154,2.316l-0.03,0.45c-0.086,0.041-0.141,0.108-0.141,0.185
	c0,0.069,0.046,0.132,0.118,0.173l-0.051,0.767c-0.125,0.062-0.208,0.163-0.208,0.278c0,0.095,0.057,0.181,0.148,0.243
	c-0.178,0.108-0.298,0.303-0.298,0.524v0.3c-2.235,2.651-7.131,4.891-4.899,8.412h-4.205v3.869H48.683V73.66h0.886v-2.97h-0.886
	v-16.9h0.886v-2.971h-0.886v-7.501h0.532l-0.009-1.407c3.266-3.928-1.085-6.668-3.243-9.468c0.053-0.107,0.083-0.227,0.083-0.354
	v-0.622c0-0.277-0.142-0.522-0.356-0.668c0.142-0.082,0.232-0.205,0.232-0.343c0-0.173-0.142-0.322-0.349-0.397l-0.065-0.978
	c0.095-0.054,0.155-0.136,0.155-0.228c0-0.101-0.074-0.19-0.186-0.244l-0.039-0.593l-0.202-3.05l-0.202,3.05l-0.04,0.593
	c-0.113,0.053-0.186,0.142-0.186,0.244c0,0.091,0.06,0.173,0.155,0.228l-0.067,1.01c-0.166,0.081-0.274,0.215-0.274,0.365
	c0,0.126,0.075,0.239,0.195,0.32c-0.235,0.142-0.392,0.399-0.392,0.691v0.622c0,0.127,0.03,0.247,0.083,0.354
	c-2.21,2.867-6.689,5.323-3.243,9.468h-0.009v1.407h0.532v7.501h-1.211v2.971h1.211v16.9h-1.211v2.971h1.211v2.771H18.302v-4.031
	h1.107v-3.712h-1.107V47.575h1.107v-3.712h-1.107v-9.371h0.665v-1.758h-0.01c4.08-4.907-1.355-8.33-4.052-11.829
	c0.066-0.134,0.103-0.284,0.103-0.443v-0.777c0-0.346-0.177-0.652-0.444-0.834c0.177-0.103,0.29-0.257,0.29-0.429
	c0-0.215-0.177-0.403-0.436-0.496l-0.081-1.222c0.119-0.068,0.194-0.17,0.194-0.284c0-0.126-0.092-0.238-0.233-0.304l-0.049-0.74
	l-0.253-3.81l-0.253,3.81l-0.05,0.74c-0.14,0.067-0.233,0.178-0.233,0.304c0,0.114,0.076,0.217,0.194,0.284l-0.084,1.262
	c-0.207,0.102-0.342,0.268-0.342,0.456c0,0.157,0.093,0.298,0.244,0.4c-0.293,0.177-0.49,0.499-0.49,0.863v0.777
	c0,0.159,0.037,0.309,0.103,0.443c-2.761,3.582-8.357,6.65-4.052,11.829H9.024v1.758h0.665v9.371H8.176v3.712h1.513v21.114H8.176
	v3.712h1.513v4.031H9.688L458.769,76.432L458.769,76.432z M129.402,37.776v3.348h-0.012h-0.393h-1.021h-1.021h-0.392h-0.012v-3.348
	l0,0c-0.035-0.741,1.078-1.258,1.426-1.906C128.323,36.518,129.437,37.036,129.402,37.776L129.402,37.776z M126.55,55.867
	L126.55,55.867c-0.034-0.74,1.079-1.258,1.426-1.906c0.347,0.648,1.461,1.166,1.426,1.906h0.001v3.348h-0.012h-0.393h-1.021h-1.021
	h-0.392h-0.012v-3.348H126.55z M339.232,59.215v-3.348l0,0c-0.035-0.74,1.078-1.258,1.426-1.906
	c0.348,0.648,1.461,1.166,1.426,1.906h0.001v3.348h-0.012h-0.393h-1.021h-1.021h-0.393H339.232z M342.084,41.124h-0.012h-0.393
	h-1.021h-1.021h-0.393h-0.012v-3.348l0,0c-0.035-0.741,1.078-1.258,1.426-1.906c0.348,0.648,1.461,1.166,1.426,1.906h0.001v3.348
	H342.084z M300.796,29.528v3.348h-0.012h-0.393h-1.021h-1.021h-0.393h-0.012v-3.348l0,0c-0.035-0.74,1.079-1.258,1.426-1.906
	C299.717,28.27,300.83,28.788,300.796,29.528L300.796,29.528z M297.943,47.619L297.943,47.619c-0.034-0.74,1.079-1.258,1.426-1.906
	c0.347,0.648,1.46,1.166,1.426,1.906h0.001v3.348h-0.012h-0.393h-1.021h-1.021h-0.393h-0.012v-3.348H297.943z M172.361,29.528v3.348
	h-0.013h-0.393h-1.021h-1.021h-0.393h-0.012v-3.348l0,0c-0.035-0.74,1.079-1.258,1.426-1.906
	C171.282,28.27,172.395,28.788,172.361,29.528L172.361,29.528z M169.508,47.619L169.508,47.619c-0.034-0.74,1.079-1.258,1.426-1.906
	c0.348,0.648,1.461,1.166,1.426,1.906h0.001v3.348h-0.013h-0.393h-1.021h-1.021h-0.393h-0.012V47.619z M15.953,39.269v4.594h-0.017
	h-0.539h-1.402h-1.401h-0.539h-0.017v-4.594l0,0c-0.048-1.016,1.48-1.726,1.957-2.616C14.472,37.543,16,38.253,15.953,39.269
	L15.953,39.269z M12.038,64.095L12.038,64.095c-0.047-1.016,1.48-1.726,1.957-2.615c0.476,0.889,2.004,1.6,1.957,2.615h0.001v4.594
	h-0.017h-0.539h-1.402h-1.401h-0.539h-0.017C12.038,68.689,12.038,64.095,12.038,64.095z M46.802,47.141v3.678h-0.014h-0.431h-1.122
	h-1.122h-0.432h-0.014v-3.678l0,0c-0.038-0.813,1.185-1.382,1.566-2.093C45.617,45.759,46.84,46.328,46.802,47.141L46.802,47.141z
	 M43.669,67.013L43.669,67.013c-0.038-0.813,1.185-1.382,1.567-2.094c0.381,0.712,1.604,1.281,1.566,2.094h0.001v3.677h-0.014
	h-0.431h-1.122h-1.122h-0.432h-0.014L43.669,67.013L43.669,67.013z M424.789,47.141v3.678h-0.013h-0.432h-1.121h-1.122h-0.431
	h-0.014v-3.678h0.001c-0.039-0.813,1.185-1.382,1.566-2.093C423.604,45.759,424.827,46.328,424.789,47.141L424.789,47.141z
	 M421.656,67.013L421.656,67.013c-0.038-0.813,1.185-1.382,1.567-2.094c0.382,0.712,1.604,1.281,1.566,2.094l0,0v3.677h-0.013
	h-0.432h-1.121h-1.122h-0.431h-0.014L421.656,67.013L421.656,67.013z M456.419,39.269v4.594h-0.017h-0.539h-1.402h-1.401h-0.539
	h-0.017v-4.594h0.001c-0.048-1.016,1.48-1.726,1.956-2.616C454.939,37.543,456.467,38.253,456.419,39.269L456.419,39.269z
	 M452.505,64.095L452.505,64.095c-0.047-1.016,1.481-1.726,1.957-2.615c0.477,0.889,2.004,1.6,1.957,2.615l0,0v4.594h-0.017h-0.539
	h-1.402h-1.401h-0.539h-0.017v-4.594H452.505z"/>
</svg>
